<svg width="18" height="18" viewBox="0 0 18 18" fill="none" xmlns="http://www.w3.org/2000/svg">
<g opacity="0.5">
<path d="M17.694 6.66678C17.658 6.54082 17.622 6.40586 17.577 6.27991C17.55 6.16295 17.505 6.05498 17.469 5.94702C17.361 5.65911 17.244 5.38021 17.109 5.1013C17.0725 5.0118 17.0304 4.92466 16.983 4.84039C16.7605 4.41113 16.5016 4.00176 16.209 3.61679C16.1632 3.54636 16.112 3.47952 16.056 3.41686C15.966 3.2999 15.876 3.19194 15.777 3.08397C15.651 2.93102 15.507 2.77807 15.363 2.63412C14.2468 1.51718 12.8563 0.713534 11.331 0.303899C11.014 0.219154 10.6925 0.152403 10.368 0.103965C10.251 0.0769744 10.125 0.0679773 9.99901 0.0499833C9.85501 0.0409863 9.71101 0.0229923 9.56701 0.0139953C9.37801 0.00899694 9.18901 0 9.00001 0C8.81101 0 8.62201 0.00899689 8.43301 0.0179939C8.28901 0.0269909 8.14501 0.0449849 8.00101 0.0539819C7.87501 0.0719759 7.74901 0.080973 7.63201 0.107964C7.3075 0.156402 6.98598 0.223153 6.66901 0.307897C5.14398 0.716962 3.75344 1.51991 2.63701 2.63612C2.49301 2.78007 2.34901 2.93602 2.22301 3.08597C2.12301 3.19394 2.03401 3.3019 1.94401 3.41886C1.88801 3.48153 1.83686 3.54836 1.79101 3.61879C1.49845 4.00376 1.2395 4.41313 1.01701 4.84239C0.969642 4.92666 0.927561 5.0138 0.891013 5.1033C0.756013 5.38221 0.639013 5.66111 0.531013 5.94902C0.495013 6.05698 0.450013 6.16495 0.423013 6.28191C0.378013 6.40786 0.342013 6.54282 0.306013 6.66878C-0.102004 8.19549 -0.102004 9.80251 0.306013 11.3292C0.342013 11.4552 0.378013 11.5901 0.423013 11.7161C0.450013 11.8331 0.495013 11.941 0.531013 12.049C0.639013 12.3369 0.756013 12.6158 0.891013 12.8947C0.927561 12.9842 0.969642 13.0713 1.01701 13.1556C1.2395 13.5849 1.49845 13.9942 1.79101 14.3792C1.83686 14.4496 1.88801 14.5165 1.94401 14.5791C2.03401 14.6961 2.12401 14.8041 2.22301 14.912C2.34901 15.065 2.49301 15.2179 2.63701 15.3619C3.75321 16.4788 5.14377 17.2825 6.66901 17.6921C6.98598 17.7768 7.3075 17.8436 7.63201 17.892C7.74901 17.919 7.87501 17.928 8.00101 17.946C8.14501 17.955 8.28901 17.973 8.43301 17.982C8.62201 17.991 8.81101 18 9.00001 18C9.18901 18 9.37801 17.991 9.56701 17.982C9.71101 17.973 9.85501 17.955 9.99901 17.946C10.125 17.928 10.251 17.919 10.368 17.892C10.6925 17.8436 11.014 17.7768 11.331 17.6921C12.8563 17.2825 14.2468 16.4788 15.363 15.3619C15.507 15.2179 15.651 15.062 15.777 14.912C15.877 14.8041 15.966 14.6961 16.056 14.5791C16.112 14.5165 16.1632 14.4496 16.209 14.3792C16.5016 13.9942 16.7605 13.5849 16.983 13.1556C17.0304 13.0713 17.0725 12.9842 17.109 12.8947C17.244 12.6158 17.361 12.3369 17.469 12.049C17.505 11.941 17.55 11.8331 17.577 11.7161C17.622 11.5901 17.658 11.4552 17.694 11.3292C18.102 9.80251 18.102 8.19549 17.694 6.66878V6.66678ZM11.214 0.746751C12.6636 1.13029 13.9843 1.89445 15.039 2.96001L13.311 4.68744C12.5567 3.9269 11.6117 3.38309 10.575 3.11296L11.214 0.746751ZM6.78601 0.746751L7.42501 3.11296C6.3883 3.38309 5.44332 3.9269 4.68901 4.68744L2.96101 2.96001C4.01574 1.89445 5.33638 1.13029 6.78601 0.746751ZM0.747013 11.2103C0.35098 9.76131 0.35098 8.23269 0.747013 6.78374L3.11401 7.42253C2.826 8.45243 2.826 9.54157 3.11401 10.5715L0.747013 11.2103ZM6.78601 17.2473C5.33638 16.8637 4.01574 16.0996 2.96101 15.034L4.68901 13.3066C5.44332 14.0671 6.3883 14.6109 7.42501 14.881L6.78601 17.2473ZM10.1 14.5392C9.94701 14.5661 9.77601 14.5931 9.61401 14.6111C9.58701 14.6111 9.56001 14.6201 9.53301 14.6201C9.17993 14.6561 8.8241 14.6561 8.47101 14.6201C8.44401 14.6201 8.41701 14.6111 8.39001 14.6111C8.22801 14.5931 8.05701 14.5661 7.90401 14.5392C7.77801 14.5122 7.66101 14.4852 7.54401 14.4492C6.58153 14.2001 5.7032 13.6983 5.00001 12.9957C4.91001 12.9057 4.82001 12.8067 4.73001 12.7078C4.65801 12.6268 4.59501 12.5458 4.52301 12.4558C4.44201 12.3479 4.36101 12.2309 4.28001 12.123C4.10276 11.8581 3.94916 11.5781 3.82101 11.2862C3.75801 11.1243 3.69501 10.9623 3.64101 10.8004C3.60501 10.6834 3.56901 10.5755 3.54101 10.4585C3.27701 9.50476 3.27701 8.49724 3.54101 7.54348C3.56801 7.42652 3.60401 7.31856 3.64101 7.2016C3.69501 7.03965 3.75801 6.87771 3.82101 6.71576C3.94916 6.42393 4.10276 6.14395 4.28001 5.87904C4.36101 5.77108 4.44201 5.65412 4.52301 5.54615C4.59501 5.45618 4.65801 5.37521 4.73001 5.29424C4.82001 5.19427 4.91001 5.0943 5.00001 5.00633C5.7017 4.30112 6.5794 3.7965 7.54201 3.54482C7.65901 3.50883 7.77601 3.48184 7.90201 3.45485C8.06259 3.42207 8.22483 3.39804 8.38801 3.38287C8.41501 3.38287 8.44201 3.37388 8.46901 3.37388C8.8221 3.33789 9.17793 3.33789 9.53101 3.37388C9.55801 3.37388 9.58501 3.38287 9.61201 3.38287C9.7752 3.39804 9.93744 3.42207 10.098 3.45485C10.224 3.48184 10.341 3.50883 10.458 3.54482C11.4198 3.79422 12.2974 4.29604 13 4.99833C13.09 5.0883 13.18 5.18727 13.27 5.28624C13.342 5.36721 13.405 5.44818 13.477 5.53815C13.558 5.64612 13.639 5.76308 13.72 5.87104C13.8973 6.13595 14.0509 6.41594 14.179 6.70776C14.242 6.86971 14.305 7.03166 14.359 7.1936C14.395 7.31056 14.431 7.41853 14.459 7.53549C14.723 8.48924 14.723 9.49676 14.459 10.4505C14.432 10.5675 14.396 10.6754 14.359 10.7924C14.305 10.9543 14.242 11.1163 14.179 11.2782C14.0509 11.5701 13.8973 11.8501 13.72 12.115C13.639 12.2229 13.558 12.3399 13.477 12.4479C13.405 12.5378 13.342 12.6188 13.27 12.6998C13.18 12.7997 13.09 12.8997 13 12.9877C12.299 13.6908 11.4228 14.194 10.462 14.4452C10.341 14.4852 10.224 14.5122 10.1 14.5392ZM11.216 17.2473L10.577 14.881C11.6137 14.6109 12.5587 14.0671 13.313 13.3066L15.041 15.034C13.9857 16.0999 12.6644 16.864 11.214 17.2473H11.216ZM14.888 10.5715C15.176 9.54157 15.176 8.45243 14.888 7.42253L17.255 6.78374C17.651 8.23269 17.651 9.76131 17.255 11.2103L14.888 10.5715Z" fill="#C2CDD9"/>
</g>
</svg>
