<svg width="18" height="18" viewBox="0 0 18 18" fill="none" xmlns="http://www.w3.org/2000/svg">
<circle cx="9" cy="9" r="9" transform="rotate(-90 9 9)" fill="#31515E"/>
<path d="M15.4732 4.29595C15.8649 4.83466 16.1924 5.42321 16.4417 6.0521L9.00049 8.99722L15.4732 4.29595Z" fill="#D46060"/>
<path d="M12.4093 1.75942C13.0193 2.04658 13.5889 2.40967 14.1016 2.83447L9.00317 9L12.4093 1.75942Z" fill="#74CAD0"/>
<path d="M3.17106 3.52599L9.00294 9.00092L1.98901 5.14687C2.31419 4.55595 2.71296 4.01249 3.17106 3.52599Z" fill="#E99958"/>
<path d="M4.71373 2.24593L9.00279 9L3.1709 3.52507C3.629 3.0362 4.14644 2.60665 4.71373 2.24593Z" fill="#383838"/>
<path d="M6.5285 1.38921L9.00177 9L4.71509 2.24593C5.27525 1.88758 5.88289 1.60042 6.5285 1.38921Z" fill="#74CAD0"/>
<path d="M8.49815 1.01662L9.00135 9L6.52808 1.38921C7.1547 1.18749 7.81456 1.05934 8.49815 1.01662Z" fill="#7584D0"/>
<path d="M9.00125 1.00001C9.51394 1.00001 10.0148 1.04747 10.5013 1.14002L9.00125 9L8.49805 1.01662C8.6642 1.00713 8.83272 1.00001 9.00125 1.00001Z" fill="#D46060"/>
<path d="M10.5014 1.13962C11.1707 1.2654 11.8092 1.47661 12.4097 1.75902L9.00366 8.99722L10.5014 1.13962Z" fill="#E99958"/>
<path d="M14.1018 2.83407C14.6192 3.26124 15.0797 3.75249 15.4737 4.29595L9.00098 8.99722L14.1018 2.83407Z" fill="#E5CA6A"/>
<path d="M16.4426 6.05488C16.6847 6.66954 16.8556 7.31979 16.9411 7.99852L9.00146 9L16.4426 6.05488Z" fill="#74CAD0"/>
<path d="M16.9382 7.99795C16.9785 8.32545 16.9999 8.66007 16.9999 8.99943C16.9999 9.3388 16.9785 9.67342 16.9382 10.0009L8.99854 8.99943L16.9382 7.99795Z" fill="#E5CA6A"/>
<path d="M9.00146 8.99974L16.9411 10.0012C16.8556 10.6776 16.6871 11.3302 16.4426 11.9449L9.00146 8.99974Z" fill="#74CAD0"/>
<path d="M9.00146 9.00002L16.4426 11.9451C16.1934 12.574 15.8682 13.1626 15.4742 13.7013L9.00146 9.00002Z" fill="#E9A058"/>
<path d="M9.00146 8.99991L15.4742 13.7036C15.0802 14.247 14.6174 14.7383 14.1023 15.1654L9.00146 8.99991Z" fill="#E5CA6A"/>
<path d="M9.00146 8.99984L14.1023 15.163C13.5872 15.5878 13.0199 15.9509 12.4099 16.238L9.00146 8.99984Z" fill="#74CAD0"/>
<path d="M9.00146 9.00032L12.4076 16.2409C11.8094 16.5233 11.1685 16.7345 10.4992 16.8603L9.00146 9.00032Z" fill="#E5CA6A"/>
<path d="M9.00125 9.00001L10.499 16.86C10.0148 16.9525 9.51394 17 9.00125 17C8.83272 17 8.6642 16.9953 8.49805 16.9834L9.00125 9.00001Z" fill="#D46060"/>
<path d="M9.00135 9.00008L8.49815 16.9835C7.81456 16.9407 7.1547 16.8126 6.52808 16.6085L9.00135 9.00008Z" fill="#7584D0"/>
<path d="M9.00129 9.00041L6.52801 16.6112C5.8824 16.4024 5.27476 16.1128 4.7146 15.7569L9.00129 9.00041Z" fill="#74CAD0"/>
<path d="M9.0015 8.99959L4.71244 15.7537C4.14515 15.3929 3.62534 14.9634 3.16724 14.4745L9.0015 8.99959Z" fill="#E5CA6A"/>
<path d="M9.00155 8.99972L3.16966 14.477C2.71156 13.9905 2.31517 13.4447 1.98999 12.8561L9.00155 8.99972Z" fill="#74CAD0"/>
<path d="M9.00163 8.99981L1.9877 12.8539C1.66726 12.2724 1.41804 11.6483 1.24951 10.9885L9.00163 8.99981Z" fill="#D46060"/>
<path d="M1 8.99972L9.00134 8.99972L1.24923 10.9908C1.08782 10.3548 1 9.68794 1 8.99972Z" fill="#E5CA6A"/>
<path d="M1.9877 5.14595L9.00163 9L1.24951 7.01128C1.41804 6.35153 1.66964 5.72738 1.9877 5.14595Z" fill="#E5CA6A"/>
<path d="M1.24923 7.01127L9.00134 9L1 9C1 8.31415 1.08782 7.64729 1.24923 7.01127Z" fill="#74CAD0"/>
<circle cx="9" cy="9" r="5" fill="#3D6A7D"/>
</svg>
