<svg width="18" height="18" viewBox="0 0 18 18" fill="none" xmlns="http://www.w3.org/2000/svg">
<path opacity="0.5" d="M9.00501 0C6.61673 0 4.32622 0.948748 2.63745 2.63751C0.948686 4.32628 0 6.61673 0 9.00501C0 11.3906 0.947631 13.6786 2.63452 15.3654C4.32141 17.0523 6.60937 18 8.99499 18H9.00501C11.3886 17.9989 13.6743 17.0523 15.3607 15.3678C17.0471 13.6833 17.9963 11.3986 18 9.01502V9.00501C18.001 7.823 17.7692 6.65237 17.3176 5.56001C16.8661 4.46765 16.2037 3.47498 15.3684 2.6387C14.5331 1.80243 13.541 1.13896 12.4492 0.686203C11.3573 0.233443 10.187 0.000262434 9.00501 0ZM9.80538 14.9583H8.07444V13.2474H9.80538V14.9583ZM11.5964 8.35465L10.8159 9.13508C10.3851 9.52017 10.0729 10.0199 9.91555 10.5759C9.83459 10.8928 9.79745 11.2194 9.80538 11.5464H8.07444V11.1262C8.07267 10.677 8.16123 10.2321 8.33483 9.8179C8.50844 9.40366 8.76355 9.02853 9.08501 8.71484L10.1557 7.63425C10.3597 7.44125 10.5108 7.19927 10.5949 6.93131C10.6789 6.66336 10.6931 6.37835 10.6359 6.1034C10.572 5.79834 10.4266 5.5163 10.2152 5.28727C10.0037 5.05824 9.73415 4.89079 9.43518 4.80269C9.00778 4.67676 8.54855 4.7184 8.15077 4.91915C7.753 5.11989 7.44667 5.46465 7.29409 5.88328C7.25224 6.03909 7.16163 6.17746 7.03565 6.27824C6.90967 6.37903 6.75483 6.43696 6.59363 6.44359H6.33348C6.13641 6.44283 5.94746 6.36489 5.80718 6.22648C5.6669 6.08808 5.58646 5.90022 5.58306 5.70318C5.58084 5.62782 5.59451 5.55282 5.62312 5.48306C5.81252 4.85814 6.17532 4.2998 6.66948 3.87294C7.16364 3.44609 7.7689 3.16826 8.41471 3.07172C9.05837 2.99805 9.70981 3.10172 10.2988 3.37153C10.8878 3.64135 11.3919 4.06704 11.7565 4.60257C12.2004 5.13607 12.4298 5.81563 12.4002 6.50899C12.3706 7.20235 12.0841 7.8599 11.5964 8.35364V8.35465Z" fill="#C2CDD9"/>
</svg>
